<?xml version="1.0" standalone="no"?>
<!DOCTYPE svg PUBLIC "-//W3C//DTD SVG 20010904//EN"
 "http://www.w3.org/TR/2001/REC-SVG-20010904/DTD/svg10.dtd">
<svg version="1.0" xmlns="http://www.w3.org/2000/svg"
 width="300.000000pt" height="240.000000pt" viewBox="0 0 300.000000 240.000000"
 preserveAspectRatio="xMidYMid meet">

<g transform="translate(0.000000,240.000000) scale(0.100000,-0.100000)"
fill="rgb(4, 102, 102)" stroke="none">
<path d="M1436 2148 l5 -73 -37 68 c-26 48 -42 67 -56 67 -17 0 -19 -5 -15
-32 3 -18 9 -69 12 -113 8 -101 13 -117 33 -113 13 3 16 13 14 48 -2 25 -6 53
-9 64 -9 33 14 8 47 -49 17 -30 39 -55 47 -55 14 0 15 11 9 83 -12 156 -17
177 -37 177 -18 0 -19 -6 -13 -72z"/>
<path d="M1595 2198 c-6 -28 -35 -214 -35 -227 0 -5 19 -12 43 -16 23 -3 50
-9 60 -11 13 -4 17 1 17 20 0 23 -4 26 -36 26 -35 0 -35 1 -32 37 l3 38 43 -3
c37 -3 42 -1 42 17 0 16 -6 21 -24 21 -43 0 -53 9 -48 41 4 29 6 30 40 24 24
-4 38 -2 43 7 14 22 10 26 -33 33 -24 3 -51 9 -60 11 -12 4 -19 -2 -23 -18z"/>
<path d="M1196 2171 c-3 -5 10 -63 30 -129 32 -104 39 -119 55 -115 22 6 22
10 9 49 -5 16 -21 68 -35 117 -24 81 -43 105 -59 78z"/>
<path d="M1857 2020 c-32 -61 -55 -115 -52 -120 13 -20 32 -9 55 33 13 23 24
43 26 45 1 2 16 -4 33 -13 54 -27 73 7 21 37 -34 19 -36 26 -16 54 14 19 15
19 46 0 27 -15 34 -16 41 -5 5 8 9 17 9 21 0 6 -93 58 -102 58 -2 0 -29 -50
-61 -110z"/>
<path d="M1032 2108 c-13 -6 -21 -16 -19 -22 2 -6 19 -62 37 -124 26 -87 37
-112 49 -110 9 2 17 13 19 25 4 25 38 41 54 25 12 -12 38 -5 38 10 0 8 -148
209 -153 207 -1 0 -12 -5 -25 -11z m95 -157 c-5 -32 -26 -19 -41 25 -21 63
-20 65 14 24 16 -19 29 -41 27 -49z"/>
<path d="M861 1997 c-9 -12 -11 -32 -6 -69 l6 -53 -31 34 c-28 30 -34 32 -47
18 -13 -13 -5 -25 73 -111 79 -88 89 -96 103 -82 14 14 12 19 -17 49 -29 30
-44 64 -24 55 87 -38 132 -45 132 -20 0 5 -33 23 -72 40 l-73 30 -15 62 c-13
54 -17 60 -29 47z"/>
<path d="M2085 1959 c-44 -35 -105 -119 -105 -145 0 -52 88 -88 120 -49 19 22
-5 48 -30 33 -21 -13 -50 -4 -50 15 0 8 24 40 53 71 40 44 56 56 70 50 15 -5
17 -14 13 -40 -7 -36 7 -52 29 -34 16 13 20 67 7 86 -9 14 -47 34 -65 34 -8 0
-27 -10 -42 -21z"/>
<path d="M1345 1771 c-107 -31 -185 -78 -265 -160 -116 -117 -170 -249 -170
-411 0 -166 54 -294 175 -415 121 -121 249 -175 415 -175 166 0 294 54 415
175 121 121 175 249 175 415 0 269 -185 506 -447 574 -80 21 -221 20 -298 -3z
m230 -41 c4 -6 -23 -10 -75 -10 -52 0 -79 4 -75 10 3 6 37 10 75 10 38 0 72
-4 75 -10z m49 -117 l45 -77 -39 -70 -39 -71 -91 0 -91 0 -39 71 -39 70 45 77
45 77 79 0 79 0 45 -77z m-536 -123 c-44 -73 -79 -120 -89 -120 -21 0 31 110
74 158 31 33 41 6 15 -38z m881 -24 c35 -63 46 -96 31 -96 -16 0 -109 150
-103 167 8 20 36 -8 72 -71z m-625 -13 c20 -38 37 -72 38 -76 0 -5 -18 -42
-42 -83 l-42 -74 -87 0 -86 0 -42 70 -42 70 47 74 c51 81 48 79 173 84 l46 2
37 -67z m521 54 c0 -1 22 -34 48 -74 l47 -72 -43 -71 -42 -70 -86 0 -87 0 -43
76 c-24 42 -43 79 -42 83 1 3 19 37 40 75 l38 68 85 -7 c46 -3 85 -7 85 -8z
m-525 -385 c22 -38 40 -75 40 -83 0 -8 -17 -43 -38 -78 l-37 -65 -70 3 c-39 1
-77 4 -85 6 -19 6 -106 141 -102 158 2 7 19 38 39 70 l34 57 89 0 89 0 41 -68z
m573 11 c20 -32 37 -63 39 -70 4 -17 -83 -152 -102 -158 -8 -2 -46 -5 -85 -6
l-70 -3 -37 65 c-21 35 -38 70 -38 78 0 8 18 45 40 83 l41 68 89 0 89 0 34
-57z m-851 -167 c43 -67 53 -106 28 -106 -19 0 -100 134 -100 166 0 33 28 9
72 -60z m948 60 c0 -32 -81 -166 -100 -166 -25 0 -15 39 28 106 44 69 72 93
72 60z m-384 -74 l42 -73 -45 -80 -45 -79 -78 0 -78 0 -45 79 -45 79 35 64
c52 93 46 89 137 86 l81 -3 41 -73z m-42 -271 c9 -14 -20 -21 -84 -21 -64 0
-93 7 -84 21 3 5 41 9 84 9 43 0 81 -4 84 -9z"/>
<path d="M664 954 c-9 -4 -9 -14 -1 -39 11 -37 14 -40 36 -26 10 6 11 16 4 37
-10 29 -20 36 -39 28z"/>
<path d="M2289 933 c-5 -15 -8 -32 -5 -40 8 -21 33 -15 40 10 9 34 7 44 -9 51
-11 4 -19 -3 -26 -21z"/>
<path d="M2110 805 c-10 -12 -3 -20 42 -48 29 -19 79 -50 110 -70 54 -34 58
-35 68 -18 8 17 -3 27 -96 85 -58 36 -107 66 -109 66 -1 0 -8 -7 -15 -15z"/>
<path d="M790 773 c-18 -23 -21 -37 -17 -75 4 -33 2 -50 -8 -58 -32 -26 -62
19 -33 48 8 8 8 15 -3 28 -12 15 -15 14 -31 -6 -39 -48 -9 -120 50 -120 51 0
67 21 67 91 0 48 4 64 17 73 14 8 21 7 35 -6 16 -17 16 -19 -5 -41 -21 -22
-21 -25 -6 -38 14 -12 19 -10 40 14 29 34 30 56 3 91 -29 37 -80 36 -109 -1z"/>
<path d="M2032 704 c-34 -24 -25 -114 12 -114 17 0 29 27 16 35 -16 10 -11 45
6 52 26 10 41 -17 58 -102 23 -112 31 -116 91 -56 42 43 46 52 35 66 -12 14
-17 13 -45 -15 l-32 -31 -13 68 c-19 102 -68 140 -128 97z"/>
<path d="M887 589 c-66 -71 -83 -96 -75 -106 6 -7 13 -13 17 -13 3 0 44 41 90
91 74 80 82 92 69 105 -13 14 -25 5 -101 -77z"/>
<path d="M983 522 c-75 -118 -79 -128 -58 -136 12 -4 25 8 47 44 17 28 33 50
35 50 1 0 2 -33 1 -72 -2 -52 1 -73 9 -73 7 0 42 47 78 104 51 79 63 106 53
112 -20 13 -21 12 -57 -47 -18 -30 -35 -53 -37 -51 -3 3 0 35 7 72 9 55 9 69
-2 81 -12 11 -24 -2 -76 -84z"/>
<path d="M1864 567 c-38 -33 -35 -69 11 -145 52 -87 94 -104 149 -61 36 29 34
68 -10 140 -56 92 -98 111 -150 66z m108 -78 c40 -58 45 -78 26 -97 -24 -24
-47 -12 -82 47 -40 66 -44 85 -18 100 25 15 33 10 74 -50z"/>
<path d="M1208 483 c-18 -22 -58 -138 -58 -170 0 -34 34 -63 73 -63 36 0 67
25 67 53 0 21 -36 23 -44 2 -7 -19 -45 -20 -52 -1 -3 7 5 44 18 82 16 49 29
70 42 72 21 4 38 -16 31 -36 -6 -17 23 -28 37 -14 13 13 3 55 -18 76 -21 21
-77 20 -96 -1z"/>
<path d="M1672 483 c-25 -21 -36 -62 -23 -82 13 -21 41 -5 41 23 0 29 11 39
34 30 22 -9 21 -27 -11 -121 -35 -104 -30 -111 56 -88 47 14 61 22 61 36 0 21
-16 24 -56 9 -15 -6 -28 -9 -31 -7 -2 2 8 34 22 71 28 74 26 107 -8 131 -28
20 -60 19 -85 -2z"/>
<path d="M1396 438 c-3 -18 -7 -77 -9 -131 l-4 -98 61 3 c46 2 61 7 61 18 0
10 -12 16 -37 18 -36 3 -38 5 -38 38 0 33 1 34 40 34 33 0 40 3 40 20 0 16 -7
20 -34 20 -40 0 -50 11 -42 44 5 19 12 23 43 22 27 -1 38 3 41 15 3 19 -24 29
-80 29 -34 0 -37 -3 -42 -32z"/>
</g>
</svg>
